<?xml version="1.0" standalone="no"?>
<!DOCTYPE svg PUBLIC "-//W3C//DTD SVG 20010904//EN"
 "http://www.w3.org/TR/2001/REC-SVG-20010904/DTD/svg10.dtd">
<svg version="1.0" xmlns="http://www.w3.org/2000/svg"
 width="512.000000pt" height="512.000000pt" viewBox="0 0 512.000000 512.000000"
 preserveAspectRatio="xMidYMid meet">

<g transform="translate(0.000000,512.000000) scale(0.100000,-0.100000)"
fill="#000000" stroke="none">
<path d="M805 4951 c-31 -8 -83 -33 -124 -59 -17 -11 -51 -16 -120 -16 -91 -1
-102 -3 -173 -38 -91 -45 -147 -103 -191 -196 -29 -61 -32 -76 -32 -162 0 -86
3 -101 32 -162 17 -37 50 -87 73 -112 51 -55 158 -111 231 -121 28 -4 66 -16
84 -26 47 -28 179 -59 249 -59 34 0 93 7 131 15 63 14 76 14 135 -1 186 -47
371 40 458 214 35 72 37 81 37 171 0 87 -3 102 -32 163 -65 138 -187 224 -334
235 -72 5 -76 7 -99 40 -24 35 -82 79 -135 102 -36 16 -149 23 -190 12z m132
-162 c41 -15 73 -48 94 -96 24 -56 46 -66 125 -58 94 11 147 -7 209 -69 101
-102 101 -230 0 -331 -77 -78 -151 -93 -262 -53 -62 21 -64 21 -120 4 -124
-39 -239 -31 -340 25 -29 16 -67 29 -84 29 -123 0 -239 117 -239 240 0 63 23
114 75 166 56 56 117 80 182 71 21 -3 60 -9 86 -13 47 -7 50 -6 90 34 62 60
119 76 184 51z"/>
<path d="M745 4455 c-50 -49 -15 -135 55 -135 41 0 80 39 80 80 0 41 -39 80
-80 80 -19 0 -40 -9 -55 -25z"/>
<path d="M4144 4910 c-62 -25 -137 -88 -176 -149 -21 -34 -38 -48 -70 -59
-223 -75 -290 -361 -123 -527 62 -63 125 -88 220 -89 l79 -1 39 -43 c56 -60
163 -111 252 -119 39 -3 77 -11 85 -18 48 -40 106 -59 185 -59 71 -1 88 3 147
32 116 57 173 152 173 287 0 73 -4 86 -36 145 -24 44 -52 78 -88 105 -32 25
-63 61 -82 95 -33 60 -79 113 -121 138 -16 9 -28 22 -28 30 0 21 -40 94 -75
138 -19 22 -62 55 -97 74 -55 30 -74 34 -148 37 -67 2 -96 -1 -136 -17z m206
-160 c50 -25 86 -73 99 -130 7 -33 19 -52 43 -70 70 -54 123 -116 141 -167 15
-44 23 -54 61 -71 113 -54 141 -180 57 -263 -63 -63 -148 -65 -221 -4 -38 31
-48 35 -102 35 -34 0 -79 6 -102 12 -41 13 -105 69 -156 137 -28 37 -51 41
-120 21 -65 -19 -116 -7 -161 39 -100 99 -30 271 109 271 37 0 78 32 86 67 12
46 54 101 93 122 50 26 123 27 173 1z"/>
<path d="M2585 4695 c-16 -15 -25 -36 -25 -55 0 -19 9 -40 25 -55 15 -16 36
-25 55 -25 19 0 40 9 55 25 16 15 25 36 25 55 0 19 -9 40 -25 55 -15 16 -36
25 -55 25 -19 0 -40 -9 -55 -25z"/>
<path d="M2420 4394 c-200 -26 -408 -102 -565 -207 -83 -56 -108 -77 -203
-170 -172 -169 -293 -394 -348 -647 -17 -75 -19 -132 -19 -495 l0 -410 32 -67
c42 -90 100 -150 186 -193 38 -19 76 -35 83 -35 7 0 16 -16 19 -37 37 -229
118 -404 253 -545 31 -33 61 -74 67 -91 10 -32 33 -48 117 -82 l38 -15 0 -154
c0 -136 -2 -156 -19 -177 l-19 -24 -369 -6 c-388 -6 -396 -7 -535 -59 -78 -29
-191 -105 -262 -176 -138 -138 -218 -314 -233 -511 -6 -78 -5 -82 20 -107 l26
-26 1871 0 1871 0 26 26 c25 25 26 29 20 107 -15 196 -94 371 -232 510 -68 70
-184 148 -263 177 -139 52 -147 53 -535 59 l-369 6 -19 24 c-17 21 -19 41 -19
178 l0 154 30 10 c73 26 115 54 125 85 6 17 38 61 71 96 34 36 82 99 107 139
76 123 107 213 143 417 3 12 10 22 18 22 7 0 45 16 83 35 86 43 144 103 186
193 l32 67 0 410 c0 363 -2 420 -19 495 -113 516 -494 897 -1006 1006 -73 15
-320 27 -390 18z m285 -164 c250 -36 469 -145 645 -320 175 -176 284 -395 320
-645 5 -38 10 -140 10 -226 l0 -156 -66 34 c-37 18 -73 33 -80 33 -11 0 -14
27 -14 139 0 201 25 185 -302 192 -194 4 -284 10 -343 23 -241 53 -434 151
-618 315 -73 66 -108 76 -145 44 -11 -10 -50 -69 -87 -132 -38 -63 -86 -131
-107 -152 -54 -53 -130 -88 -208 -96 -48 -5 -70 -12 -87 -29 -22 -22 -23 -30
-23 -164 0 -112 -3 -140 -14 -140 -7 0 -43 -15 -80 -33 l-66 -34 0 156 c0 86
5 188 10 226 36 247 145 469 315 640 251 250 604 372 940 325z m-448 -819
c270 -202 554 -291 936 -291 l167 0 0 -440 0 -440 -112 0 c-101 0 -128 4 -253
39 -224 63 -246 66 -435 66 -190 0 -216 -4 -432 -66 -123 -35 -148 -39 -252
-39 l-116 0 0 443 0 442 66 19 c123 35 232 126 309 259 21 37 40 67 41 67 2 0
38 -26 81 -59z m-657 -851 c0 -254 1 -252 -83 -167 -104 104 -104 230 0 335
84 84 83 86 83 -168z m2003 168 c54 -54 77 -105 77 -168 0 -63 -23 -114 -77
-167 -84 -85 -83 -87 -83 167 0 254 -1 252 83 168z m-783 -568 c47 -11 115
-30 153 -41 l67 -20 0 -264 0 -264 -78 -30 c-247 -95 -557 -95 -804 0 l-78 30
0 264 0 264 55 15 c30 9 81 23 112 32 121 35 196 44 343 40 103 -3 170 -11
230 -26z m-900 -237 l0 -158 -20 25 c-45 58 -120 231 -120 277 0 9 19 13 70
13 l70 0 0 -157z m1420 144 c0 -46 -75 -219 -120 -277 l-20 -25 0 158 0 157
70 0 c51 0 70 -4 70 -13z m-780 -751 c145 0 211 4 258 15 l62 16 0 -130 c0
-71 5 -147 12 -169 13 -44 72 -116 112 -137 32 -18 32 -29 2 -90 -37 -72 -68
-104 -138 -142 l-63 -34 -245 0 -245 0 -65 36 c-72 39 -129 104 -151 171 -12
37 -11 41 7 50 40 22 110 104 122 144 7 24 12 97 12 171 l0 130 63 -16 c46
-11 112 -15 257 -15z m-626 -470 c21 -110 135 -255 244 -310 94 -48 149 -56
373 -56 231 0 286 7 377 50 118 55 236 200 258 316 l6 34 277 0 c319 0 370 -8
499 -72 98 -48 206 -148 260 -240 37 -62 82 -186 82 -224 l0 -24 -195 0 -195
0 0 95 c0 88 -2 98 -25 120 -32 33 -78 33 -110 0 -23 -22 -25 -32 -25 -120 l0
-95 -1200 0 -1200 0 0 95 c0 88 -2 98 -25 120 -15 16 -36 25 -55 25 -19 0 -40
-9 -55 -25 -23 -22 -25 -32 -25 -120 l0 -95 -195 0 -195 0 0 24 c0 34 43 158
74 209 70 120 171 212 296 270 108 49 159 55 466 56 l282 1 6 -34z"/>
<path d="M2246 3000 l-43 -40 -157 0 c-153 0 -157 -1 -181 -25 -16 -15 -25
-36 -25 -55 0 -19 9 -40 25 -55 20 -21 33 -25 88 -25 l64 0 -10 -38 c-31 -115
68 -220 188 -198 94 18 153 136 110 220 -15 29 -15 29 40 87 64 67 72 103 30
144 -37 38 -77 33 -129 -15z"/>
<path d="M2745 3015 c-41 -40 -34 -77 29 -143 52 -55 53 -58 40 -87 -70 -161
133 -300 257 -176 43 43 57 95 42 153 l-10 38 64 0 c55 0 68 4 88 25 16 15 25
36 25 55 0 19 -9 40 -25 55 -24 24 -28 25 -181 25 l-157 0 -43 40 c-52 48 -92
53 -129 15z"/>
<path d="M2265 2055 c-16 -15 -25 -36 -25 -55 0 -19 9 -40 25 -55 l24 -25 271
0 271 0 24 25 c16 15 25 36 25 55 0 19 -9 40 -25 55 l-24 25 -271 0 -271 0
-24 -25z"/>
<path d="M2265 1735 c-16 -15 -25 -36 -25 -55 0 -19 9 -40 25 -55 l24 -25 271
0 271 0 24 25 c16 15 25 36 25 55 0 19 -9 40 -25 55 l-24 25 -271 0 -271 0
-24 -25z"/>
<path d="M4025 3735 c-16 -15 -25 -36 -25 -55 0 -19 9 -40 25 -55 15 -16 36
-25 55 -25 19 0 40 9 55 25 16 15 25 36 25 55 0 19 -9 40 -25 55 -15 16 -36
25 -55 25 -19 0 -40 -9 -55 -25z"/>
<path d="M985 3495 c-50 -49 -15 -135 55 -135 41 0 80 39 80 80 0 41 -39 80
-80 80 -19 0 -40 -9 -55 -25z"/>
<path d="M4505 3095 c-16 -15 -25 -36 -25 -55 0 -19 9 -40 25 -55 15 -16 36
-25 55 -25 19 0 40 9 55 25 16 15 25 36 25 55 0 19 -9 40 -25 55 -15 16 -36
25 -55 25 -19 0 -40 -9 -55 -25z"/>
<path d="M585 3015 c-50 -49 -15 -135 55 -135 41 0 80 39 80 80 0 41 -39 80
-80 80 -19 0 -40 -9 -55 -25z"/>
<path d="M4105 2615 c-50 -49 -15 -135 55 -135 41 0 80 39 80 80 0 19 -9 40
-25 55 -15 16 -36 25 -55 25 -19 0 -40 -9 -55 -25z"/>
<path d="M4665 2455 c-50 -49 -15 -135 55 -135 41 0 80 39 80 80 0 41 -39 80
-80 80 -19 0 -40 -9 -55 -25z"/>
<path d="M265 2375 c-50 -49 -15 -135 55 -135 41 0 80 39 80 80 0 41 -39 80
-80 80 -19 0 -40 -9 -55 -25z"/>
<path d="M985 2375 c-16 -15 -25 -36 -25 -55 0 -19 9 -40 25 -55 15 -16 36
-25 55 -25 19 0 40 9 55 25 16 15 25 36 25 55 0 19 -9 40 -25 55 -15 16 -36
25 -55 25 -19 0 -40 -9 -55 -25z"/>
<path d="M466 2070 c-63 -16 -153 -70 -197 -117 -22 -24 -55 -74 -72 -111 -29
-61 -32 -76 -32 -163 0 -90 2 -99 37 -171 45 -91 103 -147 196 -191 61 -29 76
-32 163 -32 90 0 99 2 173 39 68 33 88 38 155 40 65 2 85 7 139 36 70 37 100
68 140 144 22 43 26 64 26 136 0 72 -4 93 -26 136 -40 76 -70 107 -140 144
-54 29 -74 34 -139 36 -66 2 -87 7 -152 39 -62 31 -87 37 -153 40 -44 3 -96 0
-118 -5z m165 -161 c19 -6 50 -24 69 -39 63 -49 76 -53 129 -39 68 17 117 5
162 -40 65 -65 65 -157 0 -222 -45 -45 -94 -57 -162 -40 -53 14 -66 10 -129
-39 -97 -76 -215 -66 -305 25 -102 101 -102 229 0 330 69 69 152 92 236 64z"/>
<path d="M4146 1990 c-63 -16 -153 -70 -197 -117 -22 -24 -55 -74 -72 -111
-29 -61 -32 -76 -32 -163 0 -90 2 -99 37 -171 45 -90 103 -148 193 -190 80
-37 183 -47 265 -25 53 15 55 15 84 -9 16 -14 52 -37 80 -52 43 -22 64 -26
136 -26 78 -1 90 2 148 33 66 36 103 76 143 151 19 37 23 61 24 130 0 76 -3
91 -31 140 -49 90 -51 93 -75 149 -51 116 -157 184 -291 187 -58 2 -84 7 -105
21 -73 51 -217 75 -307 53z m165 -161 c19 -6 50 -24 69 -39 63 -49 76 -53 129
-39 68 17 115 5 161 -41 28 -28 42 -52 46 -81 4 -24 20 -56 40 -80 60 -72 58
-158 -5 -220 -79 -79 -192 -61 -256 41 -33 53 -68 59 -134 24 -107 -55 -204
-42 -286 40 -52 52 -75 103 -75 166 0 63 23 114 75 165 69 69 152 92 236 64z"/>
<path d="M3545 1655 c-50 -49 -15 -135 55 -135 41 0 80 39 80 80 0 41 -39 80
-80 80 -19 0 -40 -9 -55 -25z"/>
<path d="M1465 1495 c-50 -49 -15 -135 55 -135 19 0 40 9 55 25 16 15 25 36
25 55 0 19 -9 40 -25 55 -15 16 -36 25 -55 25 -19 0 -40 -9 -55 -25z"/>
</g>
</svg>
