<?xml version="1.0" standalone="no"?>
<!DOCTYPE svg PUBLIC "-//W3C//DTD SVG 20010904//EN"
 "http://www.w3.org/TR/2001/REC-SVG-20010904/DTD/svg10.dtd">
<svg version="1.0" xmlns="http://www.w3.org/2000/svg"
 width="512.000000pt" height="512.000000pt" viewBox="0 0 512.000000 512.000000"
 preserveAspectRatio="xMidYMid meet">

<g transform="translate(0.000000,512.000000) scale(0.100000,-0.100000)"
fill="#000000" stroke="none">
<path d="M4564 4297 c-2 -7 -3 -120 -2 -252 l3 -240 198 -3 197 -2 0 -95 0
-95 -200 0 -200 0 0 -80 0 -80 278 2 277 3 0 250 0 250 -197 3 -198 2 0 95 0
95 200 0 200 0 0 80 0 80 -275 0 c-214 0 -277 -3 -281 -13z"/>
<path d="M1860 3875 l0 -425 80 0 80 0 0 149 0 148 91 6 c58 5 108 14 137 27
216 96 217 402 2 499 -40 18 -66 21 -217 21 l-173 0 0 -425z m366 241 c30 -30
34 -40 34 -85 0 -89 -58 -130 -187 -131 l-53 0 0 125 0 125 86 0 c84 0 87 -1
120 -34z"/>
<path d="M2570 3875 l0 -425 80 0 80 0 2 276 3 275 101 -151 102 -151 108 150
109 151 3 -275 2 -275 80 0 80 0 0 425 0 425 -67 -1 -68 0 -118 -165 c-65 -90
-122 -164 -125 -164 -4 0 -56 74 -117 165 l-110 164 -72 1 -73 0 0 -425z"/>
<path d="M3730 4279 c-86 -39 -144 -115 -159 -210 l-8 -49 78 0 79 0 0 31 c0
22 10 41 34 65 30 30 40 34 86 34 46 0 56 -4 86 -34 27 -27 34 -42 34 -74 0
-38 -10 -52 -133 -194 -266 -306 -248 -282 -245 -341 l3 -52 268 -3 267 -2 0
75 0 75 -150 0 c-82 0 -150 3 -150 6 0 3 57 71 127 151 69 80 135 162 145 181
26 53 24 144 -6 207 -47 99 -135 155 -246 155 -44 0 -80 -7 -110 -21z"/>
<path d="M720 3575 l0 -245 80 0 80 0 0 116 0 116 71 -67 c117 -110 191 -138
439 -165 125 -14 198 -49 273 -130 69 -75 93 -136 107 -277 18 -187 44 -267
120 -362 l42 -53 54 53 53 52 -30 38 c-46 58 -69 121 -80 216 -29 247 -63 341
-162 442 -112 115 -199 153 -399 175 -73 9 -153 22 -176 30 -53 19 -115 62
-167 115 l-39 41 117 0 117 0 0 75 0 75 -250 0 -250 0 0 -245z"/>
<path d="M4270 3530 l0 -80 75 0 75 0 0 80 0 80 -75 0 -75 0 0 -80z"/>
<path d="M2 3173 l3 -248 75 0 75 0 5 112 5 111 73 -64 c113 -99 201 -136 362
-149 171 -14 266 -51 339 -131 74 -80 102 -159 116 -328 12 -144 51 -249 122
-327 l36 -40 53 52 52 51 -38 51 c-49 64 -67 124 -81 266 -19 195 -67 302
-183 408 -102 93 -198 127 -428 151 -118 13 -188 46 -269 128 l-53 54 117 0
117 0 0 75 0 75 -250 0 -250 0 2 -247z"/>
<path d="M4150 3085 l0 -174 -165 115 -165 116 -252 -178 c-139 -97 -255 -178
-256 -180 -9 -7 82 -122 92 -117 6 4 100 69 209 145 108 77 204 138 212 136
19 -4 844 -581 844 -590 1 -5 -78 -8 -174 -8 l-175 0 0 -75 0 -75 180 0 180 0
0 -75 0 -75 -110 0 -110 0 0 -75 0 -75 110 0 110 0 0 -170 0 -170 80 0 80 0 0
341 0 340 93 -65 94 -65 41 59 c23 33 42 61 42 63 0 2 -90 67 -200 143 l-199
139 -1 373 0 372 -280 0 -280 0 0 -175z m400 -215 l0 -241 -72 52 c-40 28 -94
65 -120 83 l-48 31 0 158 0 157 120 0 120 0 0 -240z"/>
<path d="M2856 2465 c-175 -123 -320 -226 -323 -229 -3 -2 14 -32 38 -65 l42
-60 94 65 93 65 2 -713 3 -713 1015 0 1015 0 3 297 2 298 -80 0 -80 0 0 -225
0 -225 -240 0 -240 0 0 450 0 450 -380 0 -380 0 0 -450 0 -450 -240 0 -240 0
0 698 0 697 151 105 c83 58 153 108 155 111 4 8 -74 119 -84 119 -4 0 -150
-101 -326 -225z m1184 -1130 l0 -375 -220 0 -220 0 0 375 0 375 220 0 220 0 0
-375z"/>
<path d="M2075 2330 l-49 -50 82 -83 c45 -45 82 -86 82 -90 0 -4 -42 -7 -93
-7 -142 0 -239 -35 -347 -124 -169 -140 -224 -166 -350 -166 -126 0 -181 26
-350 166 -109 90 -205 124 -350 124 -145 0 -241 -34 -350 -124 -153 -126 -227
-166 -310 -166 l-40 0 0 -76 0 -77 68 5 c118 10 179 41 386 202 91 72 149 90
269 84 108 -5 154 -24 243 -98 179 -149 273 -190 434 -190 161 0 255 41 434
190 93 78 134 93 256 98 l105 4 -83 -84 -83 -84 50 -55 50 -54 178 177 178
178 -175 175 c-96 96 -177 175 -180 175 -3 0 -28 -23 -55 -50z"/>
<path d="M4020 2280 l0 -80 75 0 75 0 0 80 0 80 -75 0 -75 0 0 -80z"/>
<path d="M2075 1490 l-49 -50 82 -83 c45 -45 82 -86 82 -90 0 -4 -42 -7 -93
-7 -142 0 -239 -35 -347 -124 -169 -140 -224 -166 -350 -166 -126 0 -181 26
-350 166 -109 90 -205 124 -350 124 -145 0 -241 -34 -350 -124 -153 -126 -227
-166 -310 -166 l-40 0 0 -76 0 -77 68 5 c118 10 179 41 386 202 91 72 149 90
269 84 108 -5 154 -24 243 -98 179 -149 273 -190 434 -190 161 0 255 41 434
190 93 78 134 93 256 98 l105 4 -83 -84 -83 -84 50 -55 50 -54 178 177 178
178 -175 175 c-96 96 -177 175 -180 175 -3 0 -28 -23 -55 -50z"/>
<path d="M3120 1190 l0 -80 75 0 75 0 0 80 0 80 -75 0 -75 0 0 -80z"/>
<path d="M4370 1190 l0 -80 75 0 75 0 0 80 0 80 -75 0 -75 0 0 -80z"/>
</g>
</svg>
