<?xml version="1.0" standalone="no"?>
<!DOCTYPE svg PUBLIC "-//W3C//DTD SVG 20010904//EN"
 "http://www.w3.org/TR/2001/REC-SVG-20010904/DTD/svg10.dtd">
<svg version="1.0" xmlns="http://www.w3.org/2000/svg"
 width="512.000000pt" height="512.000000pt" viewBox="0 0 512.000000 512.000000"
 preserveAspectRatio="xMidYMid meet">

<g transform="translate(0.000000,512.000000) scale(0.100000,-0.100000)"
fill="#000000" stroke="none">
<path d="M3160 4314 c-14 -2 -56 -9 -95 -15 -272 -44 -556 -217 -728 -441 -71
-93 -77 -115 -42 -156 20 -24 35 -32 60 -32 28 0 40 8 72 47 70 87 177 194
243 243 343 253 821 265 1179 29 333 -219 507 -596 461 -997 -15 -131 -11
-143 65 -176 270 -120 443 -409 422 -707 -13 -181 -78 -321 -212 -454 -133
-134 -270 -198 -453 -212 -71 -5 -90 -10 -109 -29 -31 -31 -30 -78 2 -109 29
-30 79 -32 210 -10 336 59 606 310 698 650 31 114 31 316 0 430 -64 234 -206
423 -408 542 l-50 29 -1 170 c0 179 -11 246 -59 390 -97 288 -321 546 -595
684 -165 83 -308 119 -500 125 -74 2 -146 2 -160 -1z"/>
<path d="M1795 3990 c-198 -36 -394 -174 -498 -351 -33 -56 -74 -168 -92 -251
-5 -25 -10 -28 -43 -28 -62 0 -213 -28 -287 -53 -169 -58 -300 -142 -426 -274
-89 -93 -124 -142 -177 -249 -173 -345 -141 -756 83 -1069 51 -71 170 -191
240 -241 115 -82 335 -172 431 -176 57 -3 88 25 88 78 0 47 -26 69 -102 84
-152 31 -316 122 -433 239 -297 297 -343 760 -109 1110 168 250 438 391 750
391 95 0 99 1 119 26 13 16 21 41 21 64 0 131 67 287 165 385 126 126 300 182
484 156 101 -14 122 -8 142 42 10 23 9 35 -4 61 -12 27 -25 36 -64 46 -61 16
-223 22 -288 10z"/>
<path d="M3293 3830 c-46 -19 -57 -87 -20 -124 18 -18 44 -26 110 -36 86 -13
88 -13 112 10 32 30 34 88 5 115 -11 10 -48 24 -83 32 -71 15 -93 15 -124 3z"/>
<path d="M3652 3690 c-29 -12 -53 -66 -41 -97 4 -12 35 -49 67 -82 97 -98 161
-249 162 -379 0 -83 81 -122 137 -66 25 25 26 29 19 110 -7 101 -40 209 -90
299 -56 100 -183 228 -223 224 -4 0 -18 -4 -31 -9z"/>
<path d="M1586 2230 c-63 -16 -153 -70 -197 -117 -22 -24 -55 -74 -72 -111
l-32 -67 0 -415 0 -415 32 -67 c44 -93 100 -151 191 -196 72 -35 81 -37 172
-37 91 0 100 2 172 37 129 64 212 182 225 321 5 61 4 67 -20 91 -52 52 -137
17 -137 -57 0 -125 -113 -237 -240 -237 -96 0 -194 69 -224 157 -24 69 -24
737 0 805 17 51 67 108 117 135 44 24 170 24 214 0 77 -41 133 -132 133 -214
0 -74 85 -109 137 -57 24 24 25 30 20 92 -18 194 -180 348 -375 358 -42 2 -94
-1 -116 -6z"/>
<path d="M2546 2230 c-63 -16 -153 -70 -197 -117 -22 -24 -55 -74 -72 -111
l-32 -67 0 -415 0 -415 32 -67 c44 -93 100 -151 191 -196 72 -35 81 -37 172
-37 91 0 100 2 172 38 91 44 146 102 192 197 l31 65 0 415 0 415 -31 65 c-69
144 -190 228 -340 235 -44 3 -96 0 -118 -5z m201 -174 c49 -25 100 -83 117
-134 24 -68 24 -736 0 -805 -30 -88 -128 -157 -224 -157 -96 0 -194 69 -224
157 -23 67 -24 739 -1 802 25 71 75 122 144 148 45 17 146 11 188 -11z"/>
<path d="M3420 1744 c-128 -47 -220 -170 -220 -295 0 -74 75 -115 130 -71 15
12 25 35 31 72 15 96 69 145 159 145 98 0 155 -58 155 -157 0 -55 -3 -62 -30
-84 -16 -13 -73 -41 -125 -61 -186 -71 -243 -110 -288 -197 -21 -42 -27 -68
-30 -148 -4 -93 -3 -98 21 -122 l26 -26 269 0 c250 0 272 1 293 19 33 27 33
95 0 122 -21 17 -42 19 -237 19 -209 0 -214 0 -214 20 0 61 55 103 209 159
156 57 228 118 258 220 30 105 -11 251 -90 317 -88 74 -221 103 -317 68z"/>
</g>
</svg>
