<?xml version="1.0" standalone="no"?>
<!DOCTYPE svg PUBLIC "-//W3C//DTD SVG 20010904//EN"
 "http://www.w3.org/TR/2001/REC-SVG-20010904/DTD/svg10.dtd">
<svg version="1.0" xmlns="http://www.w3.org/2000/svg"
 width="512.000000pt" height="512.000000pt" viewBox="0 0 512.000000 512.000000"
 preserveAspectRatio="xMidYMid meet">

<g transform="translate(0.000000,512.000000) scale(0.100000,-0.100000)"
fill="#000000" stroke="none">
<path d="M1507 4950 c-89 -23 -180 -85 -231 -158 l-27 -40 -52 20 c-165 63
-373 13 -499 -120 -189 -198 -182 -496 16 -679 61 -56 153 -108 214 -119 l32
-6 0 -84 0 -84 80 0 80 0 0 80 0 80 120 0 120 0 0 79 0 79 -202 4 -203 3 -63
34 c-70 38 -101 70 -140 145 -22 44 -26 63 -26 136 0 100 24 160 89 225 65 65
125 89 225 89 71 1 93 -4 135 -24 96 -47 165 -140 180 -243 l7 -47 79 0 79 0
0 28 c0 77 -54 212 -111 277 l-31 35 26 35 c70 91 165 124 270 93 78 -23 166
-135 166 -212 0 -13 13 -16 81 -16 l82 0 -7 53 c-9 74 -66 186 -122 236 -70
65 -158 102 -252 107 -42 2 -94 -1 -115 -6z"/>
<path d="M4565 4951 c-55 -14 -109 -45 -148 -84 l-38 -38 -57 21 c-219 83
-481 -21 -587 -233 -20 -39 -38 -87 -41 -107 -6 -34 -11 -39 -60 -59 -96 -40
-177 -144 -191 -246 l-6 -45 80 0 79 0 12 44 c40 151 264 151 304 0 l12 -44
79 0 80 0 -6 45 c-14 98 -95 206 -182 242 -25 10 -45 24 -45 31 0 21 39 96 69
133 42 50 139 100 210 106 71 7 150 -15 212 -57 73 -49 114 -39 154 39 41 83
118 118 198 92 45 -15 94 -70 103 -116 l6 -35 80 0 80 0 -7 48 c-8 59 -59 155
-98 188 -77 65 -205 98 -292 75z"/>
<path d="M2843 4865 c-119 -32 -245 -126 -294 -221 -19 -36 -28 -44 -44 -39
-90 25 -133 35 -157 35 l-28 0 0 -79 0 -78 43 -7 c23 -3 79 -25 125 -48 79
-40 85 -42 110 -27 28 16 41 37 67 112 26 73 72 126 145 166 60 33 71 36 150
36 79 0 90 -3 150 -36 231 -127 222 -454 -15 -569 -40 -19 -67 -24 -132 -24
-77 -1 -86 1 -163 42 -45 23 -87 42 -94 42 -27 0 -66 -42 -77 -83 -34 -126
-138 -227 -234 -227 -49 0 -68 11 -158 97 -102 97 -147 118 -252 118 -94 -1
-151 -24 -214 -86 -69 -69 -85 -116 -89 -261 l-4 -128 81 0 81 0 0 100 c0 141
29 197 111 215 62 14 98 -2 183 -84 105 -100 148 -123 248 -129 70 -4 83 -2
143 26 77 37 172 123 206 188 19 36 28 44 44 39 144 -41 204 -45 300 -20 256
67 415 329 350 578 -67 259 -333 419 -582 352z"/>
<path d="M1910 4408 c-31 -51 -59 -133 -66 -193 l-7 -55 80 0 80 0 7 46 c3 25
17 69 31 96 14 28 24 53 22 55 -16 16 -112 83 -119 83 -5 0 -17 -15 -28 -32z"/>
<path d="M3466 3824 c-34 -11 -64 -31 -102 -68 -69 -70 -84 -119 -84 -278 l0
-118 -160 0 -160 0 0 200 0 200 -80 0 -80 0 0 -200 0 -200 -95 0 c-88 0 -98
-2 -120 -25 l-25 -24 0 -223 c0 -223 -15 -416 -45 -578 -24 -134 -198 -734
-206 -713 -4 11 -43 156 -88 323 -126 476 -141 590 -141 1053 l0 298 -25 24
-24 25 -591 0 -591 0 -24 -25 -25 -24 0 -298 c0 -326 -9 -463 -45 -653 -12
-69 -151 -608 -309 -1197 -157 -590 -286 -1082 -286 -1093 0 -12 11 -32 25
-45 l24 -25 2351 0 2351 0 24 25 c25 24 25 26 25 217 l0 192 -220 221 -220
220 -191 5 -192 5 -194 670 c-246 853 -263 939 -263 1378 l0 218 -25 24 c-22
23 -31 25 -120 25 l-97 0 4 125 3 125 33 32 c28 28 39 33 82 33 42 0 54 -5 81
-31 29 -30 32 -39 40 -128 5 -53 19 -122 31 -153 124 -335 523 -430 780 -185
60 57 121 161 134 227 5 30 9 33 53 39 136 18 256 135 276 269 l7 47 -80 0
-80 0 -6 -34 c-9 -45 -39 -82 -88 -107 -34 -17 -51 -20 -112 -14 -66 6 -72 5
-92 -17 -16 -17 -23 -42 -27 -91 -24 -265 -330 -391 -523 -215 -74 69 -103
133 -114 258 -10 120 -32 173 -97 230 -75 66 -175 85 -277 54z m-1543 -781 c5
-315 13 -408 52 -598 9 -44 137 -535 286 -1091 148 -556 269 -1016 269 -1023
0 -8 -285 -11 -1090 -11 -805 0 -1090 3 -1090 11 0 7 121 467 270 1023 148
556 279 1063 290 1126 12 63 23 125 26 138 l4 22 370 0 370 0 0 80 0 80 -366
0 -366 0 6 31 c3 17 6 53 6 80 l0 49 280 0 280 0 0 80 0 80 -280 0 -280 0 0
120 0 120 479 0 478 0 6 -317z m1600 -80 c6 -238 18 -355 57 -539 15 -73 261
-943 386 -1366 5 -17 -34 -18 -725 -18 l-730 0 -15 52 c-50 177 -98 366 -98
383 0 11 55 207 121 435 67 228 131 468 144 532 l22 118 338 0 337 0 0 80 0
80 -325 0 -325 0 0 58 c0 31 3 67 6 80 l6 22 239 0 239 0 0 80 0 80 -240 0
-240 0 0 80 0 80 399 0 398 0 6 -237z m642 -2203 l-120 -120 -302 0 -303 0 0
-80 0 -80 280 0 280 0 0 -80 0 -80 -650 0 -649 0 -10 38 c-40 153 -133 499
-136 510 -3 9 173 12 863 12 l867 0 -120 -120z m420 -20 l100 -100 -205 0
-205 0 100 100 c55 55 102 100 105 100 3 0 50 -45 105 -100z m215 -340 l0 -80
-320 0 -320 0 0 80 0 80 320 0 320 0 0 -80z"/>
</g>
</svg>
