<?xml version="1.0" standalone="no"?>
<!DOCTYPE svg PUBLIC "-//W3C//DTD SVG 20010904//EN"
 "http://www.w3.org/TR/2001/REC-SVG-20010904/DTD/svg10.dtd">
<svg version="1.0" xmlns="http://www.w3.org/2000/svg"
 width="512.000000pt" height="512.000000pt" viewBox="0 0 512.000000 512.000000"
 preserveAspectRatio="xMidYMid meet">

<g transform="translate(0.000000,512.000000) scale(0.100000,-0.100000)"
fill="#000000" stroke="none">
<path d="M2511 5106 c-47 -26 -50 -46 -51 -284 0 -174 3 -229 14 -251 35 -66
137 -66 172 0 19 37 20 454 2 494 -22 48 -88 68 -137 41z"/>
<path d="M1281 4776 c-29 -16 -50 -52 -51 -86 0 -28 197 -380 235 -419 17 -18
34 -24 66 -24 36 0 48 6 72 33 24 27 28 39 24 69 -6 49 -216 409 -248 427 -31
17 -67 17 -98 0z"/>
<path d="M3741 4776 c-32 -18 -242 -378 -248 -427 -4 -30 0 -42 24 -69 24 -27
36 -33 72 -33 32 0 49 6 66 24 35 36 235 390 235 416 0 77 -82 126 -149 89z"/>
<path d="M2370 4249 c-577 -66 -1079 -422 -1336 -944 -412 -841 -64 -1855 781
-2270 650 -320 1430 -190 1946 325 572 571 661 1473 210 2145 -352 525 -976
816 -1601 744z m485 -219 c599 -126 1047 -575 1176 -1180 19 -87 23 -136 23
-290 0 -154 -4 -203 -23 -290 -129 -607 -574 -1052 -1181 -1181 -151 -33 -429
-33 -580 0 -309 66 -563 204 -777 422 -98 101 -116 122 -180 219 -108 161
-181 338 -224 540 -30 142 -33 407 -5 555 110 590 560 1063 1136 1194 148 34
213 40 380 36 105 -3 187 -11 255 -25z"/>
<path d="M1628 3120 c-15 -11 -32 -38 -38 -58 -13 -48 -13 -644 0 -735 16
-109 58 -177 157 -254 214 -166 548 -94 665 145 l33 67 3 390 c3 421 3 424
-50 451 -41 21 -74 17 -110 -15 l-33 -29 -5 -384 -5 -385 -26 -34 c-15 -19
-51 -48 -80 -64 -46 -25 -65 -30 -124 -30 -76 1 -117 16 -168 64 -62 57 -62
51 -67 463 -5 367 -6 378 -26 398 -32 32 -93 37 -126 10z"/>
<path d="M2692 3115 c-17 -14 -33 -38 -37 -54 -9 -40 326 -1005 362 -1043 44
-47 118 -49 166 -4 18 17 62 135 186 507 95 285 161 500 161 522 0 73 -74 116
-139 81 -36 -19 -37 -21 -161 -391 -69 -205 -127 -373 -130 -373 -3 0 -16 30
-29 68 -13 37 -71 204 -129 371 -97 279 -108 305 -136 322 -42 26 -79 24 -114
-6z"/>
<path d="M381 3876 c-47 -26 -63 -87 -37 -135 17 -30 376 -241 423 -248 42 -7
80 17 99 63 12 29 12 39 1 67 -8 17 -20 37 -28 44 -43 35 -387 223 -408 223
-15 -1 -37 -7 -50 -14z"/>
<path d="M4480 3784 c-102 -59 -195 -115 -206 -126 -64 -58 -7 -179 79 -165
52 8 406 217 423 249 36 69 -12 148 -88 148 -13 0 -107 -48 -208 -106z"/>
<path d="M51 2646 c-67 -37 -65 -143 4 -174 40 -18 457 -17 494 2 66 35 66
137 0 172 -39 20 -462 20 -498 0z"/>
<path d="M4571 2646 c-47 -26 -63 -84 -37 -135 25 -47 49 -51 287 -51 239 0
264 5 287 55 23 51 7 107 -39 131 -39 20 -462 20 -498 0z"/>
<path d="M704 1602 c-195 -105 -347 -200 -360 -224 -36 -69 12 -148 89 -148
20 0 367 191 406 223 8 7 20 27 28 45 11 27 11 37 -1 66 -16 40 -51 66 -86 66
-14 0 -48 -12 -76 -28z"/>
<path d="M4291 1614 c-50 -36 -60 -114 -17 -152 38 -35 390 -232 414 -232 53
0 102 48 102 101 0 50 -28 74 -216 183 -198 114 -242 130 -283 100z"/>
<path d="M1504 873 c-12 -2 -31 -14 -42 -26 -35 -38 -232 -390 -232 -415 0
-76 82 -125 149 -88 30 17 241 376 248 423 7 42 -17 80 -62 99 -19 8 -36 13
-37 13 -2 -1 -13 -4 -24 -6z"/>
<path d="M3553 865 c-43 -18 -67 -57 -60 -98 7 -47 218 -406 248 -423 67 -37
149 12 149 88 0 26 -200 381 -234 414 -28 29 -64 36 -103 19z"/>
<path d="M2511 586 c-47 -26 -50 -46 -51 -284 0 -243 5 -267 55 -290 51 -23
107 -7 131 39 19 37 20 454 2 494 -22 48 -88 68 -137 41z"/>
</g>
</svg>
