<?xml version="1.0" standalone="no"?>
<!DOCTYPE svg PUBLIC "-//W3C//DTD SVG 20010904//EN"
 "http://www.w3.org/TR/2001/REC-SVG-20010904/DTD/svg10.dtd">
<svg version="1.0" xmlns="http://www.w3.org/2000/svg"
 width="512.000000pt" height="512.000000pt" viewBox="0 0 512.000000 512.000000"
 preserveAspectRatio="xMidYMid meet">

<g transform="translate(0.000000,512.000000) scale(0.100000,-0.100000)"
fill="#000000" stroke="none">
<path d="M1728 5105 c-374 -71 -678 -347 -778 -706 -31 -112 -44 -251 -29
-312 23 -96 133 -171 223 -151 107 23 154 82 168 211 11 112 31 181 75 265 66
127 200 237 338 281 102 32 252 31 354 -2 239 -79 403 -301 405 -551 0 -104
-15 -172 -62 -270 -65 -132 -205 -251 -357 -301 -31 -11 -240 -15 -980 -19
-1035 -6 -965 -1 -1027 -67 -95 -99 -68 -251 55 -314 36 -19 65 -19 1000 -17
l962 3 88 28 c292 91 502 269 627 528 114 239 126 529 29 779 -61 159 -192
330 -333 436 -82 62 -242 138 -346 164 -112 28 -305 35 -412 15z"/>
<path d="M3968 4320 c-375 -68 -676 -339 -783 -705 -28 -95 -43 -254 -31 -319
8 -44 67 -113 113 -133 88 -36 196 -1 246 79 24 38 30 63 37 140 14 156 66
273 166 372 116 115 232 167 390 174 181 8 310 -42 437 -169 153 -152 209
-350 157 -553 -51 -200 -198 -355 -400 -423 -52 -17 -136 -18 -1710 -23
l-1655 -5 -38 -24 c-21 -13 -50 -42 -65 -64 -22 -34 -27 -52 -27 -106 0 -79
25 -128 88 -169 l41 -27 1675 0 1676 0 98 27 c737 203 983 1110 447 1649 -123
124 -281 216 -447 260 -87 24 -330 35 -415 19z"/>
<path d="M115 1953 c-151 -80 -151 -278 0 -361 28 -16 168 -17 1695 -22 1586
-5 1667 -6 1715 -23 157 -58 276 -162 343 -299 47 -97 62 -160 62 -266 0 -158
-54 -285 -171 -404 -61 -63 -92 -85 -160 -117 -181 -85 -367 -79 -538 16 -83
46 -186 149 -229 230 -38 73 -72 196 -72 265 0 184 -198 281 -330 162 -58 -52
-74 -105 -67 -212 26 -352 229 -657 542 -815 497 -251 1098 -41 1336 467 68
146 84 226 83 421 -1 155 -3 178 -28 260 -54 178 -143 324 -274 447 -119 112
-242 183 -407 235 l-90 28 -1690 2 c-1529 2 -1693 1 -1720 -14z"/>
</g>
</svg>
